<svg width="720" height="800" viewBox="0 0 720 800" fill="none" xmlns="http://www.w3.org/2000/svg">
<g clip-path="url(#clip0_411_2)">
<path d="M0 0H719.923V802.051H0V0Z" fill="#FF0F43"/>
<mask id="mask0_411_2" style="mask-type:luminance" maskUnits="userSpaceOnUse" x="565" y="491" width="156" height="312">
<path d="M720.037 491.228H565.215V802.1H720.037V491.228Z" fill="white"/>
</mask>
<g mask="url(#mask0_411_2)">
<path d="M579.288 646.664H565.215V802.1H579.288V646.664Z" fill="#1E1034"/>
<path d="M607.435 549.517H593.361V802.1H607.435V549.517Z" fill="#1E1034"/>
<path d="M691.883 549.517H677.81V802.1H691.883V549.517Z" fill="#1E1034"/>
<path d="M677.81 568.946H663.736V802.1H677.81V568.946Z" fill="#1E1034"/>
<path d="M621.516 568.946H607.442V802.1H621.516V568.946Z" fill="#1E1034"/>
<path d="M635.589 530.087H621.516V802.1H635.589V530.087Z" fill="#1E1034"/>
<path d="M663.736 530.087H649.663V802.1H663.736V530.087Z" fill="#1E1034"/>
<path d="M649.662 491.228H635.589V802.1H649.662V491.228Z" fill="#1E1034"/>
<path d="M720.037 646.664H705.964V802.1H720.037V646.664Z" fill="#1E1034"/>
<path d="M593.361 659.488H579.288V802.1H593.361V659.488Z" fill="#1E1034"/>
<path d="M705.964 659.488H691.891V802.1H705.964V659.488Z" fill="#1E1034"/>
</g>
<mask id="mask1_411_2" style="mask-type:luminance" maskUnits="userSpaceOnUse" x="140" y="356" width="444" height="446">
<path d="M583.596 356.892H140.805V801.44H583.596V356.892Z" fill="white"/>
</mask>
<g mask="url(#mask1_411_2)">
<path d="M140.805 579.166H362.2V505.071H140.805V579.166Z" fill="#1E1034"/>
<path d="M168.479 505.071L362.2 505.071V468.029H168.479V505.071Z" fill="#1E1034"/>
<path d="M140.805 468.029H362.2V430.987H140.805V468.029Z" fill="#1E1034"/>
<path d="M306.851 430.987H362.2V393.945H306.851V430.987Z" fill="#1E1034"/>
<path d="M347.532 393.934H362.2V356.892H347.532V393.934Z" fill="#1E1034"/>
<path d="M362.2 579.166C301.527 579.166 251.968 628.844 251.502 690.303L251.569 801.44H140.805V579.166H362.2Z" fill="#1E1034"/>
<path d="M251.502 690.303H140.805V802.005H251.502V690.303Z" fill="#1E1034"/>
<path d="M583.596 505.071H362.2V579.166H583.596V505.071Z" fill="#1E1034"/>
<path d="M555.921 468.029H362.2V505.071L555.921 505.071V468.029Z" fill="#1E1034"/>
<path d="M583.596 430.987H362.2V468.029H583.596V430.987Z" fill="#1E1034"/>
<path d="M417.549 393.934L362.2 393.934V430.976H417.549V393.934Z" fill="#1E1034"/>
<path d="M376.868 356.892H362.2V393.934H376.868V356.892Z" fill="#1E1034"/>
<path d="M583.596 579.166H362.2C422.874 579.166 472.433 628.844 472.898 690.303L472.426 802.005H583.19L583.596 579.166Z" fill="#1E1034"/>
<mask id="mask2_411_2" style="mask-type:luminance" maskUnits="userSpaceOnUse" x="164" y="673" width="64" height="129">
<path d="M227.892 673.15H164.028V801.384H227.892V673.15Z" fill="white"/>
</mask>
<g mask="url(#mask2_411_2)">
<path d="M211.927 801.384H215.12V753.296H211.927V801.384Z" fill="#FF0F43"/>
<path d="M208.732 801.384H211.926V753.296H208.732V801.384Z" fill="#FF0F43"/>
<path d="M207.136 720.01C207.136 710.478 197.487 702.752 185.583 702.752C173.678 702.752 164.028 710.478 164.028 720.01C164.028 729.541 173.685 737.267 185.589 737.267C197.493 737.267 207.136 729.541 207.136 720.01Z" fill="#FF0F43"/>
<path d="M185.582 715.852C195.066 715.852 202.756 709.696 202.756 702.102C202.756 694.508 195.066 688.352 185.582 688.352C176.098 688.352 168.409 694.508 168.409 702.102C168.409 709.696 176.098 715.852 185.582 715.852Z" fill="#FF0F43"/>
<path d="M185.581 696.681C193.696 696.681 200.274 691.413 200.274 684.915C200.274 678.417 193.696 673.15 185.581 673.15C177.468 673.15 170.89 678.417 170.89 684.915C170.89 691.413 177.468 696.681 185.581 696.681Z" fill="#FF0F43"/>
<path d="M182.39 801.384H188.776V715.627H182.39V801.384Z" fill="#FF0F43"/>
<path d="M211.927 769.326C220.743 769.326 227.893 762.148 227.893 753.296C227.893 744.445 220.743 737.267 211.927 737.267V769.326Z" fill="#FF0F43"/>
<path d="M211.926 769.326C203.11 769.326 195.96 762.148 195.96 753.296C195.96 744.445 203.11 737.267 211.926 737.267V769.326Z" fill="#FF0F43"/>
</g>
<mask id="mask3_411_2" style="mask-type:luminance" maskUnits="userSpaceOnUse" x="492" y="673" width="65" height="129">
<path d="M492.251 673.15H556.115V801.384H492.251V673.15Z" fill="white"/>
</mask>
<g mask="url(#mask3_411_2)">
<path d="M508.218 801.384H505.024V753.296H508.218V801.384Z" fill="#FF0F43"/>
<path d="M511.41 801.384H508.217V753.296H511.41V801.384Z" fill="#FF0F43"/>
<path d="M513.007 720.01C513.007 710.478 522.656 702.752 534.56 702.752C546.465 702.752 556.115 710.478 556.115 720.01C556.115 729.541 546.458 737.267 534.554 737.267C522.65 737.267 513.007 729.541 513.007 720.01Z" fill="#FF0F43"/>
<path d="M534.561 715.852C525.076 715.852 517.388 709.696 517.388 702.102C517.388 694.508 525.076 688.352 534.561 688.352C544.045 688.352 551.733 694.508 551.733 702.102C551.733 709.696 544.045 715.852 534.561 715.852Z" fill="#FF0F43"/>
<path d="M534.561 696.681C526.447 696.681 519.869 691.413 519.869 684.915C519.869 678.417 526.447 673.15 534.561 673.15C542.675 673.15 549.253 678.417 549.253 684.915C549.253 691.413 542.675 696.681 534.561 696.681Z" fill="#FF0F43"/>
<path d="M537.754 801.384H531.367V715.627H537.754V801.384Z" fill="#FF0F43"/>
<path d="M508.217 769.326C499.401 769.326 492.251 762.148 492.251 753.296C492.251 744.445 499.401 737.267 508.217 737.267V769.326Z" fill="#FF0F43"/>
<path d="M508.217 769.326C517.033 769.326 524.183 762.148 524.183 753.296C524.183 744.445 517.033 737.267 508.217 737.267V769.326Z" fill="#FF0F43"/>
</g>
</g>
<mask id="mask4_411_2" style="mask-type:luminance" maskUnits="userSpaceOnUse" x="209" y="234" width="302" height="422">
<path d="M510.838 234.709H209.709V655.941H510.838V234.709Z" fill="white"/>
</mask>
<g mask="url(#mask4_411_2)">
<path d="M424.649 441.377H293.303V452.451H424.649V441.377Z" fill="white"/>
<path d="M239.564 270.732V258.682H279.51V270.732H265.891V333.87H253.133V270.732H239.564Z" fill="white"/>
<path d="M287.006 333.858V258.682H306.161C313.133 258.682 318.47 260.347 322.212 263.663C325.928 266.978 327.798 271.683 327.798 277.802C327.798 281.405 326.876 284.571 325.043 287.286C323.209 290.001 320.777 291.866 317.772 292.867V294.331C321.177 295.407 323.845 297.496 325.766 300.574C327.699 303.64 328.647 307.468 328.647 312.048C328.647 319.068 326.714 324.448 322.836 328.227C318.969 332.006 313.257 333.882 305.687 333.882H287.006V333.858ZM299.763 288.75H306.71C312.372 288.75 315.19 285.909 315.19 280.241V278.528C315.19 273.197 312.36 270.557 306.71 270.557H299.763V288.75ZM299.763 322.034H306.435C309.516 322.034 311.873 321.232 313.457 319.618C315.066 318.004 315.864 315.665 315.864 312.649V309.508C315.864 306.192 315.091 303.577 313.482 301.663C311.898 299.749 309.541 298.797 306.435 298.797H299.763V322.046V322.034Z" fill="white"/>
<path d="M334.62 296.27C334.62 290.99 335.618 285.96 337.601 281.18C339.608 276.401 342.315 272.271 345.745 268.78C349.174 265.289 353.34 262.512 358.253 260.459C363.142 258.395 368.38 257.369 373.98 257.369C379.579 257.369 384.405 258.345 389.244 260.334C394.083 262.299 398.273 264.989 401.777 268.38C405.307 271.771 408.126 275.9 410.208 280.729C412.29 285.585 413.313 290.74 413.313 296.282C413.313 301.825 412.316 306.592 410.333 311.373C408.325 316.153 405.618 320.282 402.189 323.772C398.76 327.263 394.594 330.041 389.68 332.093C384.792 334.158 379.554 335.183 373.954 335.183C368.355 335.183 363.529 334.208 358.69 332.218C353.851 330.229 349.66 327.564 346.156 324.173C342.627 320.782 339.808 316.653 337.726 311.823C335.643 306.968 334.62 301.813 334.62 296.27ZM347.378 296.27C347.378 301.425 348.551 306.055 350.907 310.159C353.265 314.263 356.47 317.454 360.51 319.718C364.551 321.983 369.041 323.109 373.954 323.109C379.142 323.109 383.782 321.908 387.872 319.456C391.963 317.016 395.093 313.775 397.276 309.696C399.458 305.617 400.53 301.137 400.53 296.233C400.53 291.078 399.358 286.448 397.001 282.319C394.644 278.19 391.439 275.024 387.398 272.759C383.357 270.494 378.868 269.368 373.954 269.368C368.766 269.368 364.127 270.582 360.036 273.022C355.946 275.462 352.816 278.703 350.633 282.781C348.476 286.91 347.378 291.39 347.378 296.27Z" fill="white"/>
<path d="M422.218 333.858V258.682H435.175V265.577L434.003 280.742H435.587L455.74 258.682H463.51V333.845H450.141V318.93L451.774 279.328H450.141L435.001 294.744V333.833H422.218V333.858ZM425.984 244.957C425.984 241.841 427.106 239.351 429.388 237.486C431.67 235.647 434.501 234.721 437.918 234.721H439.652V244.744H438.954C436.646 244.744 435.499 245.494 435.499 247.033C435.499 248.573 436.646 249.373 438.954 249.373H446.399C448.706 249.373 449.853 248.598 449.853 247.033C449.853 245.47 448.694 244.744 446.399 244.744H445.7V234.709H447.434C450.839 234.709 453.682 235.634 455.989 237.474C458.297 239.313 459.419 241.804 459.419 244.944C459.419 251.888 453.856 255.354 442.72 255.354C431.583 255.354 425.996 251.888 425.996 244.944L425.984 244.957Z" fill="white"/>
<path d="M209.709 420.719V345.556H241.934V357.606H222.467V420.744H209.709V420.719Z" fill="white"/>
<path d="M243.88 383.132C243.88 377.851 244.877 372.822 246.86 368.042C248.868 363.261 251.575 359.133 255.004 355.642C258.433 352.151 262.599 349.373 267.513 347.321C272.401 345.256 277.639 344.231 283.239 344.231C288.838 344.231 293.664 345.206 298.503 347.196C303.342 349.16 307.533 351.85 311.037 355.241C314.566 358.633 317.385 362.761 319.467 367.591C321.55 372.446 322.573 377.601 322.573 383.144C322.573 388.687 321.575 393.454 319.592 398.234C317.584 403.014 314.878 407.143 311.448 410.634C308.019 414.125 303.853 416.902 298.94 418.967C294.051 421.032 288.813 422.058 283.214 422.058C277.614 422.058 272.787 421.082 267.949 419.093C263.11 417.103 258.92 414.438 255.416 411.047C251.886 407.656 249.067 403.527 246.985 398.697C244.927 393.842 243.88 388.687 243.88 383.144V383.132ZM256.663 383.132C256.663 388.287 257.835 392.916 260.192 397.021C262.549 401.124 265.754 404.315 269.795 406.58C273.836 408.845 278.325 409.971 283.239 409.971C288.427 409.971 293.066 408.757 297.156 406.317C301.247 403.877 304.377 400.637 306.56 396.557C308.742 392.478 309.815 387.999 309.815 383.094C309.815 377.939 308.643 373.31 306.286 369.18C303.928 365.051 300.723 361.885 296.683 359.62C292.642 357.356 288.152 356.229 283.239 356.229C278.051 356.229 273.411 357.443 269.321 359.883C265.23 362.323 262.1 365.564 259.917 369.643C257.735 373.772 256.663 378.252 256.663 383.132Z" fill="white"/>
<path d="M331.527 420.719V345.556H349.436C356.507 345.556 362.044 347.872 366.085 352.476C370.126 357.081 372.133 363.7 372.133 372.321C372.133 380.366 370.1 386.685 366.036 391.24C361.97 395.794 356.407 398.059 349.337 398.059H344.323V420.719H331.54H331.527ZM344.285 388.036H349.2C352.304 388.036 354.762 386.822 356.595 384.383C358.428 381.943 359.326 378.577 359.326 374.223V370.118C359.326 366.014 358.428 362.899 356.644 360.759C354.861 358.619 352.38 357.593 349.2 357.593H344.285V388.036Z" fill="white"/>
<path d="M377.82 383.132C377.82 377.851 378.818 372.822 380.801 368.042C382.809 363.261 385.515 359.133 388.944 355.642C392.374 352.151 396.54 349.373 401.453 347.321C406.342 345.256 411.58 344.231 417.179 344.231C422.779 344.231 427.605 345.206 432.444 347.196C437.283 349.16 441.473 351.85 444.978 355.241C448.507 358.633 451.325 362.761 453.408 367.591C455.491 372.446 456.513 377.601 456.513 383.144C456.513 388.687 455.515 393.454 453.533 398.234C451.525 403.014 448.819 407.143 445.389 410.634C441.959 414.125 437.795 416.902 432.88 418.967C427.992 421.032 422.754 422.058 417.154 422.058C411.555 422.058 406.729 421.082 401.89 419.093C397.051 417.103 392.86 414.438 389.356 411.047C385.827 407.656 383.008 403.527 380.925 398.697C378.843 393.842 377.82 388.687 377.82 383.144V383.132ZM390.578 383.132C390.578 388.287 391.75 392.916 394.108 397.021C396.465 401.124 399.67 404.315 403.71 406.58C407.751 408.845 412.24 409.971 417.154 409.971C422.343 409.971 426.982 408.757 431.072 406.317C435.163 403.877 438.293 400.637 440.475 396.557C442.658 392.478 443.73 387.999 443.73 383.094C443.73 377.939 442.558 373.31 440.201 369.18C437.844 365.051 434.639 361.885 430.598 359.62C426.558 357.356 422.068 356.229 417.154 356.229C411.966 356.229 407.327 357.443 403.237 359.883C399.146 362.323 396.016 365.564 393.834 369.643C391.676 373.772 390.578 378.252 390.578 383.132Z" fill="white"/>
<path d="M459.37 420.719V418.429L470.407 357.093V345.544H501.448V408.682H510.851V413.386L501.747 438.974H497.582V420.707H459.37V420.719ZM473.886 408.695H488.677V357.606H480.072L473.874 408.695H473.886Z" fill="white"/>
<path d="M245.539 487.448V475.399H285.471V487.448H271.852V550.586H259.095V487.448H245.526H245.539Z" fill="white"/>
<path d="M292.954 550.56V475.399H312.11C319.081 475.399 324.419 477.062 328.161 480.379C331.876 483.694 333.747 488.399 333.747 494.517C333.747 498.121 332.825 501.286 330.992 504.002C329.158 506.717 326.726 508.582 323.72 509.583V511.046C327.125 512.123 329.794 514.212 331.715 517.29C333.648 520.355 334.596 524.185 334.596 528.764C334.596 535.784 332.662 541.164 328.784 544.943C324.918 548.722 319.206 550.599 311.636 550.599H292.954V550.574V550.56ZM305.737 505.454H312.684C318.346 505.454 321.164 502.613 321.164 496.945V495.231C321.164 489.901 318.333 487.261 312.684 487.261H305.737V505.454ZM305.737 538.736H312.409C315.489 538.736 317.846 537.936 319.43 536.322C321.04 534.708 321.838 532.367 321.838 529.352V526.211C321.838 522.896 321.064 520.281 319.456 518.367C317.872 516.452 315.515 515.501 312.409 515.501H305.737V538.749V538.736Z" fill="white"/>
<path d="M340.594 512.974C340.594 507.693 341.592 502.663 343.574 497.883C345.582 493.104 348.288 488.974 351.718 485.483C355.148 481.992 359.313 479.214 364.227 477.163C369.115 475.099 374.353 474.072 379.953 474.072C385.553 474.072 390.379 475.048 395.217 477.038C400.056 479.002 404.246 481.692 407.751 485.083C411.28 488.474 414.099 492.603 416.182 497.433C418.264 502.287 419.287 507.442 419.287 512.986C419.287 518.529 418.289 523.296 416.306 528.076C414.298 532.856 411.592 536.985 408.163 540.476C404.733 543.967 400.568 546.745 395.654 548.796C390.765 550.861 385.528 551.887 379.928 551.887C374.329 551.887 369.502 550.911 364.663 548.921C359.824 546.932 355.634 544.267 352.13 540.876C348.6 537.485 345.782 533.356 343.699 528.527C341.616 523.672 340.594 518.517 340.594 512.974ZM353.352 512.974C353.352 518.129 354.524 522.758 356.881 526.862C359.238 530.966 362.443 534.157 366.484 536.422C370.525 538.687 375.015 539.813 379.928 539.813C385.116 539.813 389.755 538.599 393.846 536.159C397.936 533.719 401.066 530.478 403.249 526.399C405.432 522.32 406.504 517.84 406.504 512.936C406.504 507.781 405.332 503.151 402.975 499.022C400.617 494.893 397.413 491.727 393.372 489.462C389.331 487.198 384.842 486.072 379.928 486.072C374.74 486.072 370.101 487.273 366.01 489.725C361.92 492.165 358.789 495.406 356.607 499.485C354.45 503.614 353.352 508.094 353.352 512.974Z" fill="white"/>
<path d="M428.191 550.56V475.399H462.749V487.448H440.962V503.551L453.645 500.285L455.254 511.309H440.962V538.574H464.782V550.623H428.204V550.574L428.191 550.56ZM429.975 468.404V456.354H441.91V468.404H429.975ZM449.979 468.404V456.354H461.914V468.404H449.979Z" fill="white"/>
<path d="M236.571 637.685V635.395L247.609 574.059V562.51H278.649V625.648H288.053V630.353L278.948 655.941H274.783V637.672H236.571V637.685ZM251.088 625.661H265.878V574.572H257.273L251.075 625.661H251.088Z" fill="white"/>
<path d="M294.064 637.685V562.523H328.622V574.572H306.835V590.675L319.593 587.397L321.226 598.421H306.809V625.686H330.63V637.735H294.077V637.685H294.064Z" fill="white"/>
<path d="M335.78 634.257V620.543H338.786C338.786 624.322 340.046 626.224 342.552 626.224C344.062 626.224 345.234 625.523 346.057 624.109C346.88 622.695 347.441 620.33 347.74 617.04L351.806 574.547V562.498H384.431V637.66H371.673V574.523H360.536L359.513 608.381C359.388 613.211 359.064 617.39 358.541 620.906C358.017 624.422 357.393 627.3 356.582 629.477C355.784 631.692 354.799 633.456 353.627 634.757C352.455 636.071 351.195 636.972 349.885 637.473C348.576 637.948 347.079 638.198 345.346 638.198C341.43 638.248 338.25 636.909 335.793 634.219L335.78 634.257Z" fill="white"/>
<path d="M393.31 600.098C393.31 594.817 394.307 589.787 396.29 585.007C398.298 580.228 401.004 576.099 404.434 572.608C407.864 569.104 412.028 566.339 416.942 564.275C421.831 562.21 427.069 561.184 432.668 561.184C438.268 561.184 443.094 562.16 447.933 564.15C452.772 566.114 456.962 568.804 460.467 572.195C463.996 575.598 466.814 579.715 468.897 584.545C470.98 589.399 472.002 594.554 472.002 600.098C472.002 605.641 471.005 610.421 469.022 615.2C467.014 619.98 464.308 624.109 460.879 627.6C457.448 631.091 453.283 633.869 448.37 635.933C443.481 637.998 438.243 639.024 432.644 639.024C427.044 639.024 422.218 638.048 417.379 636.058C412.54 634.069 408.35 631.404 404.845 628.013C401.316 624.61 398.498 620.493 396.415 615.663C394.332 610.808 393.31 605.653 393.31 600.11V600.098ZM406.068 600.098C406.068 605.253 407.24 609.883 409.597 613.986C411.954 618.091 415.159 621.282 419.2 623.546C423.241 625.811 427.73 626.937 432.644 626.937C437.832 626.937 442.471 625.736 446.561 623.296C450.652 620.856 453.782 617.615 455.965 613.536C458.147 609.457 459.22 604.99 459.22 600.085C459.22 594.93 458.048 590.3 455.69 586.172C453.333 582.043 450.128 578.876 446.088 576.612C442.047 574.347 437.557 573.221 432.644 573.221C427.456 573.221 422.816 574.435 418.726 576.874C414.635 579.315 411.505 582.555 409.322 586.634C407.14 590.763 406.068 595.243 406.068 600.123V600.098Z" fill="white"/>
</g>
<mask id="mask5_411_2" style="mask-type:luminance" maskUnits="userSpaceOnUse" x="0" y="491" width="155" height="312">
<path d="M154.822 491.228H0V802.1H154.822V491.228Z" fill="white"/>
</mask>
<g mask="url(#mask5_411_2)">
<path d="M14.0733 646.664H0V802.1H14.0733V646.664Z" fill="#1E1034"/>
<path d="M42.2208 549.517H28.1475V802.1H42.2208V549.517Z" fill="#1E1034"/>
<path d="M126.668 549.517H112.595V802.1H126.668V549.517Z" fill="#1E1034"/>
<path d="M112.595 568.946H98.5215V802.1H112.595V568.946Z" fill="#1E1034"/>
<path d="M56.3009 568.946H42.2275V802.1H56.3009V568.946Z" fill="#1E1034"/>
<path d="M70.3751 530.087H56.3018V802.1H70.3751V530.087Z" fill="#1E1034"/>
<path d="M98.5216 530.087H84.4482V802.1H98.5216V530.087Z" fill="#1E1034"/>
<path d="M84.4482 491.228H70.375V802.1H84.4482V491.228Z" fill="#1E1034"/>
<path d="M154.822 646.664H140.749V802.1H154.822V646.664Z" fill="#1E1034"/>
<path d="M28.1466 659.488H14.0732V802.1H28.1466V659.488Z" fill="#1E1034"/>
<path d="M140.749 659.488H126.676V802.1H140.749V659.488Z" fill="#1E1034"/>
</g>
</g>
<defs>
<clipPath id="clip0_411_2">
<rect width="720" height="800" fill="white"/>
</clipPath>
</defs>
</svg>
